#!OML:ASF G:\JayActor3\Patient Classification 1\Patient 1\Session 6\male.ASF
:FULLY-SPECIFIED
:DEGREES
4158
root -3.95004 16.007 -7.65681 654.717 -82.8875 -660.045
lowerback -5.58722 1.55354 0.101284
upperback 1.69985 2.20994 -4.1493
thorax 5.07596 1.14556 -4.16255
lowerneck 0.634067 -0.508461 -0.354234
upperneck 34.6627 1.79201 -15.8577
head 11.276 -1.73966 -5.9652
rclavicle 2.09966e-014 -1.98785e-014
rhumerus -84.9556 38.9871 -127.889
rradius 78.1539
rwrist 17.0764
rhand -61.7192 47.2998
rfingers 7.12502
rthumb -33.787 20.469
lclavicle 2.09966e-014 -1.98785e-014
lhumerus -80.2943 -46.8739 107.498
lradius 89.609
lwrist 6.96789
lhand -35.2441 -39.1258
lfingers 7.12502
lthumb -8.3803 -9.31209
rfemur -14.726 0.311192 4.584
rtibia 47.9415
rfoot -26.5324 -18.3188
rtoes -6.69086
lfemur 4.93375 23.3476 -26.1701
ltibia 21.4547
lfoot -16.8911 -14.374
ltoes 9.06711
4159
root -3.93932 16.0092 -7.64354 654.783 -82.964 -660.149
lowerback -5.55585 1.50326 0.201138
upperback 1.7819 2.13478 -4.01556
thorax 5.13632 1.11203 -4.08627
lowerneck 0.631212 -0.361853 -0.223464
upperneck 34.5405 2.02478 -16.0054
head 11.2517 -1.62549 -6.02063
rclavicle -6.58474e-015 2.0276e-014
rhumerus -84.9333 39.0629 -127.638
rradius 78.3544
rwrist 17.1306
rhand -61.7335 47.4002
rfingers 7.12502
rthumb -33.8006 20.5724
lclavicle -6.58474e-015 2.0276e-014
lhumerus -80.2028 -46.7128 107.589
lradius 89.459
lwrist 7.01189
lhand -35.2155 -39.0773
lfingers 7.12502
lthumb -8.35271 -9.26244
rfemur -14.7101 0.389386 4.62367
rtibia 47.9003
rfoot -26.4832 -18.3235
rtoes -6.61119
lfemur 4.96792 23.3512 -26.1471
ltibia 21.4029
lfoot -16.8724 -14.3384
ltoes 9.08738
4160
root -3.9285 16.0113 -7.63032 654.883 -83.0436 -660.293
lowerback -5.52199 1.45432 0.306675
upperback 1.8674 2.06073 -3.88224
thorax 5.19931 1.07926 -4.01366
lowerneck 0.62675 -0.224117 -0.0975054
upperneck 34.4171 2.24146 -16.1379
head 11.2262 -1.51717 -6.07019
rclavicle -1.09083e-014 1.23246e-014
rhumerus -84.8981 39.132 -127.374
rradius 78.554
rwrist 17.1873
rhand -61.7449 47.5075
rfingers 7.12502
rthumb -33.8114 20.6821
lclavicle -1.09083e-014 1.23246e-014
lhumerus -80.1273 -46.5726 107.697
lradius 89.3135
lwrist 7.07636
lhand -35.1934 -39.03
lfingers 7.12502
lthumb -8.33146 -9.21435
rfemur -14.6878 0.457665 4.66714
rtibia 47.8611
rfoot -26.4282 -18.3167
rtoes -6.52679
lfemur 5.00566 23.3462 -26.1179
ltibia 21.3577
lfoot -16.8567 -14.2956
ltoes 9.09942
4161
root -3.91748 16.0134 -7.61716 654.98 -83.1268 -660.438
lowerback -5.48671 1.40649 0.413732
upperback 1.95489 1.98768 -3.74796
thorax 5.26381 1.04704 -3.94088
lowerneck 0.621442 -0.0943655 0.0189413
upperneck 34.2908 2.44348 -16.2554
head 11.1986 -1.41464 -6.11275
rclavicle 2.3059e-014 2.46493e-014
rhumerus -84.8572 39.2003 -127.103
rradius 78.7504
rwrist 17.268
rhand -61.7551 47.6033
rfingers 7.12502
rthumb -33.8211 20.78
lclavicle 2.3059e-014 2.46493e-014
lhumerus -80.0627 -46.4526 107.821
lradius 89.1704
lwrist 7.15951
lhand -35.174 -38.9893
lfingers 7.12502
lthumb -8.31266 -9.17288
rfemur -14.6656 0.519685 4.71244
rtibia 47.8246
rfoot -26.362 -18.3027
rtoes -6.46104
lfemur 5.04081 23.3263 -26.0899
ltibia 21.3199
lfoot -16.8469 -14.2313
ltoes 9.10018
4162
root -3.90628 16.0156 -7.60425 655.075 -83.2178 -660.579
lowerback -5.44644 1.36067 0.524994
upperback 2.03918 1.91645 -3.61295
thorax 5.32248 1.01575 -3.86966
lowerneck 0.61889 0.0297526 0.12504
upperneck 34.1655 2.63321 -16.3544
head 11.17 -1.3168 -6.14689
rclavicle -1.29707e-014 5.1684e-015
rhumerus -84.8162 39.2627 -126.833
rradius 78.9399
rwrist 17.373
rhand -61.7653 47.6807
rfingers 7.12502
rthumb -33.8308 20.8595
lclavicle -1.29707e-014 5.1684e-015
lhumerus -80.0198 -46.3526 107.966
lradius 89.0332
lwrist 7.25225
lhand -35.1653 -38.949
lfingers 7.12502
lthumb -8.30428 -9.13219
rfemur -14.6472 0.576448 4.76455
rtibia 47.7914
rfoot -26.2824 -18.2855
rtoes -6.42748
lfemur 5.06933 23.2906 -26.0606
ltibia 21.2913
lfoot -16.8448 -14.141
ltoes 9.08479
4163
root -3.89506 16.0178 -7.59164 655.143 -83.312 -660.695
lowerback -5.40217 1.31495 0.633109
upperback 2.11924 1.84508 -3.47805
thorax 5.37441 0.984127 -3.79689
lowerneck 0.617054 0.150496 0.224342
upperneck 34.0445 2.81564 -16.4424
head 11.1427 -1.22221 -6.17634
rclavicle -1.33434e-014 1.39149e-014
rhumerus -84.781 39.3231 -126.57
rradius 79.1229
rwrist 17.4938
rhand -61.767 47.7583
rfingers 7.12502
rthumb -33.8324 20.9375
lclavicle -1.33434e-014 1.39149e-014
lhumerus -79.9991 -46.2654 108.128
lradius 88.9033
lwrist 7.34866
lhand -35.1649 -38.9038
lfingers 7.12502
lthumb -8.3039 -9.08705
rfemur -14.6342 0.630366 4.81757
rtibia 47.7638
rfoot -26.1881 -18.27
rtoes -6.44638
lfemur 5.09247 23.2405 -26.035
ltibia 21.2701
lfoot -16.8512 -14.0261
ltoes 9.05374
4164
root -3.88361 16.0202 -7.57939 655.182 -83.4124 -660.778
lowerback -5.35556 1.26922 0.740246
upperback 2.19443 1.77331 -3.3434
thorax 5.41996 0.952131 -3.72393
lowerneck 0.613502 0.270795 0.318801
upperneck 33.9276 2.99551 -16.5209
head 11.1176 -1.12869 -6.20179
rclavicle 1.10574e-015 -1.76918e-014
rhumerus -84.7498 39.3856 -126.318
rradius 79.2984
rwrist 17.6283
rhand -61.7683 47.8227
rfingers 7.12502
rthumb -33.8336 21.0021
lclavicle 1.10574e-015 -1.76918e-014
lhumerus -79.9935 -46.1879 108.299
lradius 88.7813
lwrist 7.44592
lhand -35.1668 -38.865
lfingers 7.12502
lthumb -8.30572 -9.04827
rfemur -14.634 0.683212 4.87428
rtibia 47.7436
rfoot -26.0808 -18.2566
rtoes -6.50176
lfemur 5.10464 23.1787 -26.0124
ltibia 21.2548
lfoot -16.8623 -13.8854
ltoes 9.0015
4165
root -3.87195 16.0228 -7.5675 655.166 -83.5156 -660.799
lowerback -5.31075 1.22376 0.842331
upperback 2.26438 1.70195 -3.21048
thorax 5.46106 0.920029 -3.64988
lowerneck 0.610525 0.390504 0.412982
upperneck 33.8142 3.1734 -16.596
head 11.0939 -1.03598 -6.22628
rclavicle -1.87603e-014 3.26007e-014
rhumerus -84.7224 39.4501 -126.074
rradius 79.4689
rwrist 17.7631
rhand -61.767 47.8992
rfingers 7.12502
rthumb -33.8324 21.0784
lclavicle -1.87603e-014 3.26007e-014
lhumerus -80.0056 -46.1174 108.478
lradius 88.6708
lwrist 7.54267
lhand -35.1747 -38.8211
lfingers 7.12502
lthumb -8.31335 -9.00468
rfemur -14.6511 0.733346 4.92943
rtibia 47.7333
rfoot -25.9648 -18.2421
rtoes -6.58216
lfemur 5.10441 23.1094 -25.9971
ltibia 21.2432
lfoot -16.8757 -13.726
ltoes 8.9418
4166
root -3.86034 16.0253 -7.5558 655.093 -83.6178 -660.758
lowerback -5.27353 1.17642 0.938592
upperback 2.33046 1.6283 -3.08006
thorax 5.5023 0.886525 -3.57532
lowerneck 0.609185 0.511309 0.507415
upperneck 33.7027 3.35208 -16.6702
head 11.0712 -0.942988 -6.25067
rclavicle 1.91206e-014 -2.45499e-014
rhumerus -84.7026 39.5233 -125.846
rradius 79.6372
rwrist 17.8849
rhand -61.765 47.9803
rfingers 7.12502
rthumb -33.8304 21.1591
lclavicle 1.91206e-014 -2.45499e-014
lhumerus -80.0302 -46.0482 108.661
lradius 88.5695
lwrist 7.63425
lhand -35.1829 -38.7707
lfingers 7.12502
lthumb -8.32128 -8.95455
rfemur -14.6845 0.774063 4.9773
rtibia 47.7352
rfoot -25.8376 -18.2246
rtoes -6.68265
lfemur 5.09589 23.048 -25.987
ltibia 21.2335
lfoot -16.8875 -13.5683
ltoes 8.88135
